<svg id="Group_4046" data-name="Group 4046" xmlns="http://www.w3.org/2000/svg" width="30.079" height="30.078" viewBox="0 0 30.079 30.078">
  <path id="Path_8586" data-name="Path 8586" d="M0,0A2.448,2.448,0,0,0-1.185.3a13.889,13.889,0,0,1-2.93-8.525A13.88,13.88,0,0,1,9.75-22.087a14.006,14.006,0,0,1,2.761.275.588.588,0,0,0,.692-.459.587.587,0,0,0-.46-.693,15.2,15.2,0,0,0-2.993-.3A14.941,14.941,0,0,0-.885-18.856,14.935,14.935,0,0,0-5.29-8.223,15.07,15.07,0,0,0-2.054,1.1a2.454,2.454,0,0,0-.413,1.368,2.452,2.452,0,0,0,.723,1.745A2.45,2.45,0,0,0,0,4.935a2.452,2.452,0,0,0,1.745-.723,2.452,2.452,0,0,0,.723-1.745A2.448,2.448,0,0,0,1.745.723,2.448,2.448,0,0,0,0,0M.914,3.381A1.284,1.284,0,0,1,0,3.76a1.283,1.283,0,0,1-.913-.379,1.284,1.284,0,0,1-.379-.914,1.285,1.285,0,0,1,.379-.914A1.28,1.28,0,0,1,0,1.175a1.283,1.283,0,0,1,.914.378,1.285,1.285,0,0,1,.379.914,1.284,1.284,0,0,1-.379.914" transform="translate(5.29 23.262)" fill="#fff"/>
  <path id="Path_8587" data-name="Path 8587" d="M0,0A2.471,2.471,0,0,0-.309-3.113a2.448,2.448,0,0,0-1.744-.723A2.452,2.452,0,0,0-3.8-3.113a2.454,2.454,0,0,0-.723,1.745A2.454,2.454,0,0,0-3.8.377,2.452,2.452,0,0,0-2.053,1.1,2.46,2.46,0,0,0-.868.8,13.9,13.9,0,0,1,2.063,9.321,13.881,13.881,0,0,1-11.8,23.186a13.958,13.958,0,0,1-2.734-.27.589.589,0,0,0-.692.461.588.588,0,0,0,.461.691,15.079,15.079,0,0,0,2.965.292,14.941,14.941,0,0,0,10.635-4.4,14.941,14.941,0,0,0,4.4-10.635A15.062,15.062,0,0,0,0,0M-2.967-.454a1.284,1.284,0,0,1-.379-.914,1.285,1.285,0,0,1,.379-.914,1.284,1.284,0,0,1,.914-.378,1.284,1.284,0,0,1,.914.378,1.294,1.294,0,0,1,0,1.828,1.285,1.285,0,0,1-.914.379,1.285,1.285,0,0,1-.914-.379" transform="translate(26.842 5.718)" fill="#fff"/>
  <path id="Path_8588" data-name="Path 8588" d="M0,0A.588.588,0,0,0,.588.587H4.261A.588.588,0,0,0,4.849,0V-1.14a9.193,9.193,0,0,0,2.2-.913l.8.8a.591.591,0,0,0,.416.172.587.587,0,0,0,.415-.172l2.6-2.6a.588.588,0,0,0,0-.831l-.8-.8A9.213,9.213,0,0,0,11.4-7.687H12.53a.586.586,0,0,0,.587-.586v-3.674a.588.588,0,0,0-.587-.588H11.4a9.182,9.182,0,0,0-.915-2.2l.8-.8a.585.585,0,0,0,.172-.416.582.582,0,0,0-.172-.415l-2.6-2.6a.588.588,0,0,0-.831,0l-.8.8a9.193,9.193,0,0,0-2.2-.913V-20.21a.589.589,0,0,0-.588-.588H.588A.589.589,0,0,0,0-20.21v1.129a9.2,9.2,0,0,0-2.2.913l-.8-.8a.587.587,0,0,0-.83,0l-2.6,2.6a.588.588,0,0,0-.172.415.589.589,0,0,0,.172.416l.8.8a9.162,9.162,0,0,0-.914,2.2H-7.68a.588.588,0,0,0-.587.588l0,3.673a.586.586,0,0,0,.172.416.587.587,0,0,0,.415.171h1.135a9.21,9.21,0,0,0,.914,2.206l-.8.8a.589.589,0,0,0,0,.831l2.6,2.6a.59.59,0,0,0,.415.172h0a.588.588,0,0,0,.415-.172l.8-.8A9.2,9.2,0,0,0,0-1.14ZM-1.975-3.289a.589.589,0,0,0-.734.078l-.715.716L-5.19-4.263l.714-.715A.586.586,0,0,0-4.4-5.712,8.014,8.014,0,0,1-5.51-8.4a.588.588,0,0,0-.575-.464H-7.094l0-2.5h1.007a.588.588,0,0,0,.575-.465A8.023,8.023,0,0,1-4.4-14.509a.586.586,0,0,0-.079-.734l-.71-.71,1.768-1.767.709.71a.587.587,0,0,0,.734.078A8.048,8.048,0,0,1,.711-18.045a.588.588,0,0,0,.464-.574v-1h2.5v1a.586.586,0,0,0,.464.574,8.043,8.043,0,0,1,2.685,1.113.587.587,0,0,0,.734-.078l.71-.71,1.767,1.767-.71.71a.587.587,0,0,0-.078.734,8.062,8.062,0,0,1,1.112,2.685.589.589,0,0,0,.575.465h1.009v2.5H10.933a.588.588,0,0,0-.575.464A8.033,8.033,0,0,1,9.246-5.712a.587.587,0,0,0,.078.734l.714.715L8.272-2.5l-.714-.715a.59.59,0,0,0-.735-.078A8.052,8.052,0,0,1,4.138-2.176a.586.586,0,0,0-.464.574V-.588h-2.5V-1.6a.589.589,0,0,0-.464-.574A8.048,8.048,0,0,1-1.975-3.289" transform="translate(12.615 25.145)" fill="#fff"/>
  <path id="Path_8589" data-name="Path 8589" d="M0,0A4.86,4.86,0,0,0-4.854-4.854,4.859,4.859,0,0,0-9.708,0,4.859,4.859,0,0,0-4.854,4.854,4.86,4.86,0,0,0,0,0M-8.533,0A3.683,3.683,0,0,1-4.854-3.679,3.683,3.683,0,0,1-1.175,0,3.684,3.684,0,0,1-4.854,3.68,3.684,3.684,0,0,1-8.533,0" transform="translate(19.894 15.039)" fill="#fff"/>
  <path id="Path_8590" data-name="Path 8590" d="M0,0A.588.588,0,0,0,.415-.172.6.6,0,0,0,.588-.588.6.6,0,0,0,.415-1,.594.594,0,0,0,0-1.176.592.592,0,0,0-.415-1a.594.594,0,0,0-.173.415.594.594,0,0,0,.173.416A.587.587,0,0,0,0,0" transform="translate(20.449 2.221)" fill="#fff"/>
  <path id="Path_8591" data-name="Path 8591" d="M0,0A.591.591,0,0,0-.416.172.6.6,0,0,0-.588.588.591.591,0,0,0-.416,1,.6.6,0,0,0,0,1.175.593.593,0,0,0,.415,1,.593.593,0,0,0,.587.588.6.6,0,0,0,.415.172.588.588,0,0,0,0,0" transform="translate(9.656 27.867)" fill="#fff"/>
</svg>
