<svg xmlns="http://www.w3.org/2000/svg" viewBox="0 0 47.16246 42.12046"><defs><style>.a{fill:#ff8900;}</style></defs><path class="a" d="M9.26993,29.21616a6.50008,6.50008,0,0,0,5.931.459,1.21527,1.21527,0,0,0,.507-.218,4.485,4.485,0,0,0,1.894-3.4,5.97,5.97,0,0,0-1.731-4.392,1.21384,1.21384,0,0,0-.212-.331,11.263,11.263,0,0,1,8.3-18.88c6.052,0,10.444,4.675,10.444,11.117a11.61283,11.61283,0,0,1-3.51,7.772,1.21678,1.21678,0,0,0-.142.111,5.529,5.529,0,0,0-1.662,4.734,4.25205,4.25205,0,0,0,2.157,3.159,1.23047,1.23047,0,0,0,.215.139,6.37607,6.37607,0,0,0,9.246-5.831,1.232,1.232,0,0,0-1.225-1.2h-.028a1.225,1.225,0,0,0-1.20007,1.24945h0l.00006.00256a3.923,3.923,0,0,1-5.614,3.625,1.19378,1.19378,0,0,0-.112-.071,1.852,1.852,0,0,1-1.016-1.44,3.05416,3.05416,0,0,1,.67-2.309c.024-.02.05-.036.072-.058a14.247,14.247,0,0,0,4.6-9.884,14.021,14.021,0,0,0-3.574-9.59,12.51794,12.51794,0,0,0-9.326-3.979,13.711,13.711,0,0,0-10.3,22.767,1.2159,1.2159,0,0,0,.29.438,3.618,3.618,0,0,1,1.207,2.693,2.03007,2.03007,0,0,1-.7,1.424l-.014.005a3.925,3.925,0,0,1-5.691-3.589,1.226,1.226,0,0,0-1.19943-1.252H7.51886a1.232,1.232,0,0,0-1.225,1.2A6.5,6.5,0,0,0,9.26993,29.21616Z" transform="translate(-0.00002 0.00011)"/><path class="a" d="M11.9259,36.12119c3.222-.1,7.339-2.11,8.333-4.949a1.226,1.226,0,0,0-2.314-.81c-.568,1.623-3.529,3.231-6.093,3.309a9.2,9.2,0,0,1-6.817-2.79,9.77706,9.77706,0,0,1-2.413-8.468,1.22742,1.22742,0,1,0-2.399-.52051l-.001.00452a12.325,12.325,0,0,0,3.039,10.679,11.739,11.739,0,0,0,8.33,3.55C11.7019,36.12619,11.81592,36.12418,11.9259,36.12119Z" transform="translate(-0.00002 0.00011)"/><path class="a" d="M17.78888,16.78217a1.962,1.962,0,1,0,1.962-1.962,1.962,1.962,0,0,0-1.962,1.962Z" transform="translate(-0.00002 0.00011)"/><path class="a" d="M27.34293,14.84116a1.962,1.962,0,1,0,1.962,1.962,1.962,1.962,0,0,0-1.962-1.962Z" transform="translate(-0.00002 0.00011)"/><path class="a" d="M46.94092,22.01016a1.22742,1.22742,0,0,0-2.401.51148l.001.00451a9.77586,9.77586,0,0,1-2.413,8.468,9.2,9.2,0,0,1-6.817,2.79c-2.564-.078-5.525-1.686-6.093-3.308a1.226,1.226,0,0,0-2.32733.77185l.01333.03814c.994,2.839,5.111,4.851,8.333,4.949.11,0,.221.005.331.005a11.739,11.739,0,0,0,8.33-3.55A12.323,12.323,0,0,0,46.94092,22.01016Z" transform="translate(-0.00002 0.00011)"/><path class="a" d="M40.32391,39.3342a1.21912,1.21912,0,0,0-.923-.17c-4.926,1.056-9.149.416-11.892-1.8a7.03,7.03,0,0,1-2.7-4.7c.007-.126.013-.251.013-.376a1.23907,1.23907,0,1,0-2.478.027h0c0,.111.006.223.011.335a7.03514,7.03514,0,0,1-2.7,4.684c-2.743,2.217-6.966,2.857-11.892,1.8a1.22722,1.22722,0,0,0-.514,2.4,23.58491,23.58491,0,0,0,4.924.55,14.149,14.149,0,0,0,9.024-2.841,10.41727,10.41727,0,0,0,2.379-2.715,10.4143,10.4143,0,0,0,2.4,2.742,14.14855,14.14855,0,0,0,9.024,2.841,23.60564,23.60564,0,0,0,4.924-.549,1.226,1.226,0,0,0,.409-2.227Z" transform="translate(-0.00002 0.00011)"/></svg>