<svg xmlns="http://www.w3.org/2000/svg" viewBox="0 0 243.98886 42.12025"><defs><style>.a{fill:#6d42ed;}.b{fill:#ff8900;}</style></defs><path class="a" d="M526.62507,504.36616h-4.441v-2.3a2.566,2.566,0,0,0-2.50983-2.621l-.00116,0h-.056a2.57,2.57,0,0,0-2.565,2.513v2.412h-1.3a2.5,2.5,0,0,0-1.752.631,2.20605,2.20605,0,0,0-.7,1.69,2.12015,2.12015,0,0,0,.7,1.619,2.467,2.467,0,0,0,1.742.627h1.307v10.657a9.10751,9.10751,0,0,0,.99,4.249,7.79979,7.79979,0,0,0,2.734,3.014,7.19986,7.19986,0,0,0,3.926,1.115h.835a3.10605,3.10605,0,0,0,1.958-.7,2.33994,2.33994,0,0,0,.861-1.866,2.638,2.638,0,0,0-.643-1.822,2.16208,2.16208,0,0,0-1.642-.75h-1.38a2.16906,2.16906,0,0,1-1.743-.885,3.575,3.575,0,0,1-.766-2.358v-10.658h4.434a2.48811,2.48811,0,0,0,1.749-.628,2.116,2.116,0,0,0,.7-1.608,2.216,2.216,0,0,0-.7-1.7A2.4711,2.4711,0,0,0,526.62507,504.36616Z" transform="translate(-390.61814 -490.92099)"/><path class="a" d="M608.10005,504.34517h-4.441v-2.281a2.566,2.566,0,0,0-2.50983-2.621l-.00116,0h-.056a2.569,2.569,0,0,0-2.565,2.511v2.391h-1.3a2.485,2.485,0,0,0-1.752.631,2.206,2.206,0,0,0-.7,1.69,2.123,2.123,0,0,0,.7,1.619,2.48305,2.48305,0,0,0,1.742.627h1.307v10.622a9.10815,9.10815,0,0,0,.989,4.249,7.79994,7.79994,0,0,0,2.734,3.014,7.176,7.176,0,0,0,3.925,1.115h.835a3.09983,3.09983,0,0,0,1.958-.7,2.33793,2.33793,0,0,0,.862-1.867,2.63788,2.63788,0,0,0-.641-1.82,2.142,2.142,0,0,0-1.642-.751h-1.38a2.16906,2.16906,0,0,1-1.743-.885,3.577,3.577,0,0,1-.766-2.359V508.90718h4.434a2.483,2.483,0,0,0,1.749-.628,2.116,2.116,0,0,0,.7-1.608,2.214,2.214,0,0,0-.7-1.7A2.479,2.479,0,0,0,608.10005,504.34517Z" transform="translate(-390.61814 -490.92099)"/><path class="a" d="M484.06706,505.79716a10.68607,10.68607,0,0,0-5.691-1.473,11.676,11.676,0,0,0-5.927,1.506,10.76932,10.76932,0,0,0-4.059,4.165,12.48778,12.48778,0,0,0-1.459,6.089,11.861,11.861,0,0,0,1.547,6.068,11.05793,11.05793,0,0,0,4.286,4.159,12.954,12.954,0,0,0,10.278.786,11.69161,11.69161,0,0,0,3.561-1.854,1.982,1.982,0,0,0,.868-1.729,2.46807,2.46807,0,0,0-.919-1.714,2.33109,2.33109,0,0,0-1.6-.552,2.825,2.825,0,0,0-1.618.57,7.46544,7.46544,0,0,1-1.978.995,7.12576,7.12576,0,0,1-2.38.432,7.58989,7.58989,0,0,1-3.8-.937,6.85491,6.85491,0,0,1-2.579-2.541,6.71188,6.71188,0,0,1-.7-1.717h14.659a2.409,2.409,0,0,0,1.716-.658,2.23312,2.23312,0,0,0,.693-1.664,13.38275,13.38275,0,0,0-1.244-5.87A9.6397,9.6397,0,0,0,484.06706,505.79716Zm-.583,6.23a7.48419,7.48419,0,0,1,.567,1.7h-12.1a7.6857,7.6857,0,0,1,.5-1.372,5.969,5.969,0,0,1,2.271-2.531,6.84093,6.84093,0,0,1,3.457-.932h.2a5.316,5.316,0,0,1,5.105,3.13Z" transform="translate(-390.61814 -490.92099)"/><path class="a" d="M509.90809,517.48817a6.982,6.982,0,0,0-2.745-2.366,18.68817,18.68817,0,0,0-4.941-1.591,18.9711,18.9711,0,0,1-3.2-.875,2.75725,2.75725,0,0,1-1.245-.829,1.743,1.743,0,0,1-.287-.989,1.33,1.33,0,0,1,.9-1.248,6.26194,6.26194,0,0,1,2.755-.548,8.59933,8.59933,0,0,1,2.524.338,4.98129,4.98129,0,0,1,1.956,1.2,3.457,3.457,0,0,0,1.781.872,2.57406,2.57406,0,0,0,1.989-.384,2.12889,2.12889,0,0,0,.926-1.633,2.437,2.437,0,0,0-.655-1.752,8.6999,8.6999,0,0,0-3.5-2.511,12.934,12.934,0,0,0-4.939-.89h-.031a12.44953,12.44953,0,0,0-4.115.7,7.98035,7.98035,0,0,0-3.353,2.182,5.48887,5.48887,0,0,0-1.358,3.8,5.62984,5.62984,0,0,0,2.034,4.395,13.36774,13.36774,0,0,0,6.194,2.558,10.55536,10.55536,0,0,1,4.09,1.345,1.9,1.9,0,0,1,.914,1.608,1.791,1.791,0,0,1-.995,1.5,6.30031,6.30031,0,0,1-3.263.678,7.74025,7.74025,0,0,1-3.138-.619,5.81622,5.81622,0,0,1-2-1.291,2.77708,2.77708,0,0,0-1.714-.89,2.68314,2.68314,0,0,0-2.014.653,2.521,2.521,0,0,0-1.016,1.747,2.352,2.352,0,0,0,.671,1.958,10.61911,10.61911,0,0,0,3.948,2.335,15.84107,15.84107,0,0,0,5.277.9h.145a11.97614,11.97614,0,0,0,5.022-.94,7.40006,7.40006,0,0,0,3.15-2.59,6.506,6.506,0,0,0,1.086-3.669,5.86121,5.86121,0,0,0-.854-3.154Z" transform="translate(-390.61814 -490.92099)"/><path class="a" d="M561.35707,505.44716a8.65787,8.65787,0,0,0-4.35-1.081,10.0542,10.0542,0,0,0-4.937,1.2,8.74414,8.74414,0,0,0-2.1,1.617,7.18047,7.18047,0,0,0-2.044-1.736,8.722,8.722,0,0,0-4.35-1.081,8.5629,8.5629,0,0,0-4.531,1.212,8.33834,8.33834,0,0,0-.765.528,2.42024,2.42024,0,0,0-.521-.774,2.786,2.786,0,0,0-3.755,0,2.54311,2.54311,0,0,0-.757,1.9v18.08493a2.664,2.664,0,0,0,4.525,1.863,2.61,2.61,0,0,0,.723-1.866v-11.506a4.59991,4.59991,0,0,1,1.218-3.323,3.983,3.983,0,0,1,3.056-1.273,3.88194,3.88194,0,0,1,2.87,1.068,4.58206,4.58206,0,0,1,1.081,3.368v11.67a2.663,2.663,0,0,0,2.662,2.622h.043a2.657,2.657,0,0,0,1.82-.758,2.61114,2.61114,0,0,0,.723-1.866v-11.508a4.648,4.648,0,0,1,1.2-3.326,4.32,4.32,0,0,1,5.9-.2,4.582,4.582,0,0,1,1.081,3.368v11.67a2.664,2.664,0,0,0,4.524,1.863,2.61115,2.61115,0,0,0,.723-1.866v-11.67a11.036,11.036,0,0,0-1.048-4.995A7.45187,7.45187,0,0,0,561.35707,505.44716Z" transform="translate(-390.61814 -490.92099)"/><path class="a" d="M591.201,510.18715a11.66412,11.66412,0,0,0-21.779,6,12.52519,12.52519,0,0,0,1.416,5.969,11.08075,11.08075,0,0,0,3.886,4.2,10.741,10.741,0,0,0,11.152,0,10.94582,10.94582,0,0,0,1.66-1.283v.107a2.60714,2.60714,0,0,0,5.212.155v-9.148a11.82416,11.82416,0,0,0-1.546-6Zm-3.5,6.184a7.48017,7.48017,0,0,1-.863,3.412,6.52111,6.52111,0,0,1-2.342,2.493,6.738,6.738,0,0,1-6.754,0,6.61286,6.61286,0,0,1-2.385-2.5,7.34019,7.34019,0,0,1-.88-3.592,7.42152,7.42152,0,0,1,.88-3.625,6.62576,6.62576,0,0,1,2.382-2.5,6.73692,6.73692,0,0,1,6.753,0,6.5252,6.5252,0,0,1,2.345,2.494,7.55815,7.55815,0,0,1,.862,3.628v.184Z" transform="translate(-390.61814 -490.92099)"/><path class="a" d="M633.912,517.49214a2.23288,2.23288,0,0,0,.693-1.664,13.38013,13.38013,0,0,0-1.244-5.87,9.6425,9.6425,0,0,0-3.655-4.06,10.686,10.686,0,0,0-5.691-1.473,11.65208,11.65208,0,0,0-5.926,1.507,10.76477,10.76477,0,0,0-4.059,4.165,12.48336,12.48336,0,0,0-1.459,6.089,11.85842,11.85842,0,0,0,1.547,6.068,11.062,11.062,0,0,0,4.287,4.159,12.952,12.952,0,0,0,10.277.786,11.69045,11.69045,0,0,0,3.561-1.854,1.9812,1.9812,0,0,0,.869-1.729,2.468,2.468,0,0,0-.92-1.715,2.34013,2.34013,0,0,0-1.6-.552,2.82092,2.82092,0,0,0-1.618.57,7.4784,7.4784,0,0,1-1.978.995,7.12976,7.12976,0,0,1-2.38.432,7.57994,7.57994,0,0,1-3.8-.937,6.84725,6.84725,0,0,1-2.579-2.541,6.69922,6.69922,0,0,1-.7-1.717h14.65906A2.4,2.4,0,0,0,633.912,517.49214Zm-4.788-5.363a7.48121,7.48121,0,0,1,.567,1.7h-12.1a7.68027,7.68027,0,0,1,.5-1.372,5.967,5.967,0,0,1,2.27-2.531,6.879,6.879,0,0,1,3.657-.93,5.313,5.313,0,0,1,5.106,3.132Z" transform="translate(-390.61814 -490.92099)"/><path class="a" d="M466.17906,500.34517l-.126-.124a2.478,2.478,0,0,0-1.8-.714h-18.828a2.516,2.516,0,0,0-.091,5.031h5.03v12.88l.046.595h-.042v.072a11.35721,11.35721,0,0,0,1.235,4.759,9.76583,9.76583,0,0,0,3.422,3.774,8.917,8.917,0,0,0,4.883,1.384h1.125a3.41408,3.41408,0,0,0,2.135-.751,2.389,2.389,0,0,0,.878-1.912,2.783,2.783,0,0,0-.665-1.923l-.018-.02a2.05208,2.05208,0,0,0-1.6-.721h-1.865a3.774,3.774,0,0,1-3.005-1.5,5.38306,5.38306,0,0,1-1.191-3.071v-13.568h8.545a2.547,2.547,0,0,0,1.912-4.192Z" transform="translate(-390.61814 -490.92099)"/><path class="b" d="M399.88806,520.13716a6.5,6.5,0,0,0,5.931.459,1.21482,1.21482,0,0,0,.507-.218,4.485,4.485,0,0,0,1.894-3.4,5.96993,5.96993,0,0,0-1.731-4.392,1.21339,1.21339,0,0,0-.212-.331,11.263,11.263,0,0,1,8.3-18.88c6.052,0,10.444,4.675,10.444,11.117a11.61291,11.61291,0,0,1-3.51,7.772,1.21589,1.21589,0,0,0-.142.111,5.529,5.529,0,0,0-1.662,4.734,4.252,4.252,0,0,0,2.157,3.159,1.23051,1.23051,0,0,0,.215.139,6.37607,6.37607,0,0,0,9.246-5.831,1.232,1.232,0,0,0-1.225-1.2h-.028a1.225,1.225,0,0,0-1.20007,1.24945l.00006.00257a3.923,3.923,0,0,1-5.614,3.625,1.19807,1.19807,0,0,0-.112-.071,1.852,1.852,0,0,1-1.016-1.44,3.05409,3.05409,0,0,1,.67-2.309c.024-.02.05-.036.072-.058a14.24709,14.24709,0,0,0,4.6-9.884,14.021,14.021,0,0,0-3.574-9.59,12.518,12.518,0,0,0-9.326-3.979,13.711,13.711,0,0,0-10.3,22.767,1.21607,1.21607,0,0,0,.29.438,3.618,3.618,0,0,1,1.207,2.693,2.03,2.03,0,0,1-.7,1.424l-.014.005a3.925,3.925,0,0,1-5.691-3.589,1.226,1.226,0,0,0-1.19943-1.252H398.137a1.232,1.232,0,0,0-1.225,1.2A6.5,6.5,0,0,0,399.88806,520.13716Z" transform="translate(-390.61814 -490.92099)"/><path class="b" d="M402.54405,527.04216c3.222-.1,7.339-2.11,8.333-4.949a1.226,1.226,0,0,0-2.314-.81c-.568,1.623-3.529,3.231-6.093,3.309a9.2,9.2,0,0,1-6.817-2.79,9.777,9.777,0,0,1-2.413-8.468,1.22742,1.22742,0,1,0-2.4-.516,12.325,12.325,0,0,0,3.039,10.679,11.739,11.739,0,0,0,8.33,3.55C402.32005,527.04716,402.43406,527.04518,402.54405,527.04216Z" transform="translate(-390.61814 -490.92099)"/><path class="b" d="M408.407,507.70317a1.962,1.962,0,1,0,1.962-1.962A1.962,1.962,0,0,0,408.407,507.70317Z" transform="translate(-390.61814 -490.92099)"/><path class="b" d="M417.96106,505.76216a1.962,1.962,0,1,0,1.962,1.962A1.962,1.962,0,0,0,417.96106,505.76216Z" transform="translate(-390.61814 -490.92099)"/><path class="b" d="M437.55905,512.93117a1.22742,1.22742,0,1,0-2.4.516,9.77591,9.77591,0,0,1-2.413,8.468,9.19991,9.19991,0,0,1-6.817,2.79c-2.564-.078-5.525-1.686-6.093-3.308a1.226,1.226,0,0,0-2.32733.77185l.01333.03815c.994,2.839,5.111,4.851,8.333,4.949.11,0,.221.005.331.005a11.739,11.739,0,0,0,8.33-3.55A12.323,12.323,0,0,0,437.55905,512.93117Z" transform="translate(-390.61814 -490.92099)"/><path class="b" d="M430.94205,530.25517a1.219,1.219,0,0,0-.923-.17c-4.926,1.056-9.149.416-11.892-1.8a7.03009,7.03009,0,0,1-2.7-4.7c.007-.126.013-.251.013-.376a1.23907,1.23907,0,0,0-2.478.027h0c0,.111.006.223.011.335a7.035,7.035,0,0,1-2.7,4.684c-2.743,2.217-6.966,2.857-11.892,1.8a1.22721,1.22721,0,1,0-.514,2.4,23.587,23.587,0,0,0,4.924.55,14.149,14.149,0,0,0,9.024-2.841,10.41715,10.41715,0,0,0,2.379-2.715,10.41414,10.41414,0,0,0,2.4,2.742,14.14822,14.14822,0,0,0,9.024,2.841,23.60557,23.60557,0,0,0,4.924-.549,1.226,1.226,0,0,0,.409-2.227Z" transform="translate(-390.61814 -490.92099)"/></svg>