<svg xmlns="http://www.w3.org/2000/svg" viewBox="0 0 1024 1024"><defs><style>.a{fill:#fe961d;}.b{fill:#fe9316;}.c{fill:#fe951b;}.d{fill:#fe9317;}.e{fill:#fe961e;}.f{fill:#fea236;}</style></defs><path class="a" d="M610,637c-16.84587-62.11927-1.30144-100.07126,37.66841-150.36387C757.69086,343.1427,573.46318,143.81251,422.32448,249.54559c-69.91422,45.99456-96.90809,128.50587-67.06972,207.57012,29.705,71.785,91.392,101.61044,52.484,191.23349l.77809-.798C338.66289,674.70717,252.05,659.79791,240.00462,573.902c1.30151-18.31826,24.17388-25.98618,36.76725-12.61356,16.53258,17.3597,29.83632,39.69221,49.47364,51.91544,8.90869,5.54165,31.87174-3.15946,42.64906-12.28032,5.932-5.0202,3.72864-26.36169-1.71293-36.715C158.6393,341.32592,475.26472,24.50069,680.67428,259.03137c65.73843,81.21737,50.531,213.48284-24.39135,290.83862-52.31507,49.51578,33.5076,94.05318,69.30124,47.956,10.04218-11.57027,11.48093-30.22968,20.03582-43.62259,9.24036-13.78818,31.34128-10.50065,36.81013,5.10232,6.3766,60.58694-58.04991,111.3835-117.09823,99.94019C644.89724,655.45105,630.39523,641.001,610,637Z"/><path class="b" d="M315.81425,803.18014c79.76942-.32123,152.83729-12.299,176.8205-107.61094C494.42953,688.43645,503.19827,682.74331,512,681c4.82843-.95631,20.1017,7.01189,21.43213,13.14044,23.35795,107.5982,105.06435,111.06521,190.61823,107.90388,10.87447-.40183,22.91216-5.30759,32.23968-2.00141,19.66026,5.26866,27.98756,35.03232,4.91952,41.64013-218.09676,40.27741-228.274-109.15358-270.509-54.52589C432.62266,852.032,355.56928,850.102,278.57069,843.20458c-21.09489-2.16208-24.838-32.16637-4.95768-39.89738C287.07235,796.64439,300.1649,801.1054,315.81425,803.18014Z"/><path class="c" d="M434.2942,656.2135c26.03653,8.12448,12.56125,41.575-.68789,54.73564C290.45251,831.07625,135.4984,697.14106,137.53957,545.75206c2.60175-21.03219,36.54575-22.11765,40.88065-.91515,8.53319,144.23893,123.7033,215.87318,218.58539,125.16033C406.337,663.69,431.95184,655.51982,434.2942,656.2135Z"/><path class="d" d="M700.99878,712.21365C806.35651,719.424,833.12594,630.95816,847.9553,544.22008c2.53449-9.00031,9.46445-16.76939,14.3737-25.1057,6.87,6.53693,18.07477,12.03485,19.92971,19.77384C921.28207,689.29539,724.4,820.831,602.33569,723.7561c-32.0333-21.95037-55.25112-76.33333,2.92915-75.39007C605.26258,648.36512,659.1362,710.349,700.99878,712.21365Z"/><path class="e" d="M464.31984,423.5424c23.5157,14.70647,11.62018,54.42427-15.36967,54.3155-10.14384-1.58137-23.98643-21.76444-23.78917-33.541C426.73948,433.08245,451.872,412.47884,464.31984,423.5424Z"/><path class="f" d="M585.84015,423.71146c29.54912,20.72225,6.00819,63.5544-26.03539,42.57085C538.99465,448.95454,559.82063,405.49559,585.84015,423.71146Z"/></svg>