<svg xmlns="http://www.w3.org/2000/svg" viewBox="0 0 1024 1024"><defs><style>.a{fill:#fe961d;}.b{fill:#fe9316;}.c{fill:#fe951b;}.d{fill:#fe9317;}.e{fill:#fe961e;}.f{fill:#fea236;}</style></defs><path class="a" d="M645.22909,681.92387c-22.92681-84.5428-1.77123-136.19453,51.26578-204.64153,149.73787-195.291-100.9915-466.57456-306.68757-322.67443-95.15153,62.59748-131.88953,174.89334-91.28023,282.49785,40.42772,97.69768,124.38226,138.28932,71.42936,260.2641l1.059-1.08612C275.94594,733.24241,158.068,712.95126,141.67444,596.049c1.77133-24.9307,32.90007-35.36656,50.03934-17.16675,22.50043,23.62612,40.6065,54.02013,67.33241,70.65565,12.1245,7.542,43.37665-4.3,58.04432-16.71323,8.07335-6.83237,5.07459-35.87761-2.33126-49.96823C30.93825,279.51869,461.85768-151.67268,741.415,167.51783c89.4684,110.53485,68.77145,290.54491-33.196,395.82424-71.19954,67.38976,45.603,128.00406,94.31728,65.26694,13.66716-15.74686,15.62527-41.14186,27.26826-59.36927,12.57591-18.76539,42.65471-14.29114,50.09769,6.94412,8.6784,82.45734-79.0045,151.59022-159.36783,136.01615-27.81105-5.16472-47.54794-24.83094-75.30534-30.27614Z"/><path class="b" d="M244.84949,908.091c108.56423-.43718,208.00782-16.73862,240.64837-146.45585,2.44266-9.7075,14.3767-17.45573,26.35563-19.82833,6.57138-1.30152,27.35793,9.543,29.16861,17.88382,31.78959,146.43852,142.99,151.157,259.42674,146.85454,14.79988-.54688,31.18289-7.2235,43.87742-2.72387,26.75712,7.17051,38.09038,47.67812,6.69533,56.6712-296.82433,54.81656-310.67528-148.55535-368.15618-74.2084-79.04253,88.29307-183.91029,85.66632-288.70349,76.27917-28.70962-2.94254-33.80391-43.77764-6.74728-54.29936C205.73247,899.196,223.55112,905.26731,244.84949,908.091Z"/><path class="c" d="M406.0978,708.073c35.99473,9.07116,17.09556,56.58249-.93619,74.49386C210.33279,946.0569-.556,763.77438,2.222,557.73767c3.54091-28.6243,49.73786-30.10158,55.63756-1.24551C69.47306,752.79781,226.21675,850.29027,355.34894,726.8323,368.04877,718.2483,382,702,406.0978,708.073Z"/><path class="d" d="M769.0762,784.28781c143.38929,9.81311,200.00423-105.02342,200.00423-228.63513C982,512,1013.74765,537.75507,1015.76653,548.39615,1034.89378,649.21191,993.404,746.93633,926,801c-81.42577,65.31033-200.31289,71.27863-291.20185-1.00321C591.20162,770.12289,560,696,639,697,638.99669,697,712.10225,781.75,769.0762,784.28781Z"/><path class="e" d="M446.962,391.41331c32.00429,20.01514,15.81477,74.0701-20.91775,73.92207-13.80551-2.15221-32.64494-29.62087-32.37647-45.64853C395.816,404.39709,430.02073,376.35607,446.962,391.41331Z"/><path class="f" d="M612.34812,391.6434c40.21564,28.20247,8.177,86.496-35.43352,57.93788C548.59256,425.99861,576.9362,366.85205,612.34812,391.6434Z"/></svg>