<svg xmlns="http://www.w3.org/2000/svg" width="244" height="42.11" viewBox="0 0 244 42.11">
  <g id="Group_2" data-name="Group 2" transform="translate(-261.999 -117)">
    <path id="Path_2372" data-name="Path 2372" d="M0,0H-4.441V-2.3a2.548,2.548,0,0,0-.712-1.83,2.553,2.553,0,0,0-1.8-.79h-.055A2.569,2.569,0,0,0-9.572-2.411c0,.036,0,.071,0,.1V0h-1.3a2.5,2.5,0,0,0-1.752.631,2.2,2.2,0,0,0-.7,1.69,2.116,2.116,0,0,0,.7,1.618,2.462,2.462,0,0,0,1.742.628h1.307V15.225a9.105,9.105,0,0,0,.99,4.249,7.8,7.8,0,0,0,2.734,3.013A7.207,7.207,0,0,0-1.923,23.6h.836a3.1,3.1,0,0,0,1.958-.695,2.337,2.337,0,0,0,.861-1.866,2.631,2.631,0,0,0-.642-1.822A2.16,2.16,0,0,0-.552,18.47h-1.38a2.167,2.167,0,0,1-1.743-.885,3.578,3.578,0,0,1-.766-2.358V4.567H-.007a2.485,2.485,0,0,0,1.749-.628,2.113,2.113,0,0,0,.7-1.608,2.212,2.212,0,0,0-.7-1.7A2.469,2.469,0,0,0,0,0" transform="translate(398.016 130.444)" fill="#6c42ec"/>
    <path id="Path_2373" data-name="Path 2373" d="M0,0H-4.441V-2.281a2.545,2.545,0,0,0-.713-1.83,2.544,2.544,0,0,0-1.8-.79h-.055a2.569,2.569,0,0,0-2.565,2.51c0,.038,0,.075,0,.107V0h-1.3a2.485,2.485,0,0,0-1.751.631,2.2,2.2,0,0,0-.7,1.689,2.118,2.118,0,0,0,.7,1.619,2.478,2.478,0,0,0,1.742.628h1.307V15.189a9.1,9.1,0,0,0,.989,4.249,7.794,7.794,0,0,0,2.734,3.014,7.172,7.172,0,0,0,3.925,1.115h.72l.116,0A3.113,3.113,0,0,0,.87,22.874a2.337,2.337,0,0,0,.861-1.867,2.635,2.635,0,0,0-.641-1.82,2.142,2.142,0,0,0-1.642-.751h-1.38a2.17,2.17,0,0,1-1.743-.885,3.579,3.579,0,0,1-.766-2.359V4.567H-.006a2.48,2.48,0,0,0,1.749-.628,2.115,2.115,0,0,0,.7-1.608,2.215,2.215,0,0,0-.7-1.7A2.482,2.482,0,0,0,0,0" transform="translate(479.492 130.423)" fill="#6c42ec"/>
    <path id="Path_2374" data-name="Path 2374" d="M0,0A10.682,10.682,0,0,0-5.691-1.474,11.692,11.692,0,0,0-11.618.032,10.773,10.773,0,0,0-15.676,4.2a12.494,12.494,0,0,0-1.459,6.089,11.866,11.866,0,0,0,1.547,6.068,11.064,11.064,0,0,0,4.287,4.16,12.943,12.943,0,0,0,6.05,1.5A12.9,12.9,0,0,0-1.024,21.3a11.658,11.658,0,0,0,3.561-1.855,1.979,1.979,0,0,0,.869-1.728A2.469,2.469,0,0,0,2.486,16a2.33,2.33,0,0,0-1.6-.553,2.829,2.829,0,0,0-1.618.571,7.5,7.5,0,0,1-1.978,1,7.153,7.153,0,0,1-2.38.431,7.588,7.588,0,0,1-3.8-.937,6.864,6.864,0,0,1-2.579-2.54,6.686,6.686,0,0,1-.7-1.717H2.49a2.408,2.408,0,0,0,1.717-.658A2.23,2.23,0,0,0,4.9,9.93,13.38,13.38,0,0,0,3.656,4.06,9.648,9.648,0,0,0,0,0M-.583,6.23a7.468,7.468,0,0,1,.567,1.7h-12.1a7.692,7.692,0,0,1,.5-1.372A5.962,5.962,0,0,1-9.342,4.022,6.836,6.836,0,0,1-5.885,3.09c.066,0,.133,0,.2,0A5.316,5.316,0,0,1-.583,6.23" transform="translate(355.458 131.871)" fill="#6c42ec"/>
    <path id="Path_2375" data-name="Path 2375" d="M0,0A6.985,6.985,0,0,0-2.745-2.365,18.644,18.644,0,0,0-7.686-3.957a19.009,19.009,0,0,1-3.2-.874,2.765,2.765,0,0,1-1.246-.829,1.748,1.748,0,0,1-.287-.989,1.33,1.33,0,0,1,.9-1.249,6.26,6.26,0,0,1,2.755-.548,8.593,8.593,0,0,1,2.524.338,4.984,4.984,0,0,1,1.956,1.2A3.458,3.458,0,0,0-2.5-6.034,2.572,2.572,0,0,0-.516-6.419,2.128,2.128,0,0,0,.41-8.052,2.435,2.435,0,0,0-.245-9.805a8.7,8.7,0,0,0-3.5-2.51,12.929,12.929,0,0,0-4.939-.891h-.031a12.447,12.447,0,0,0-4.115.7,7.983,7.983,0,0,0-3.352,2.182,5.488,5.488,0,0,0-1.358,3.8,5.634,5.634,0,0,0,2.034,4.4A13.375,13.375,0,0,0-9.313.423a10.524,10.524,0,0,1,4.09,1.345A1.9,1.9,0,0,1-4.31,3.376a1.788,1.788,0,0,1-.994,1.5,6.3,6.3,0,0,1-3.263.679A7.774,7.774,0,0,1-11.7,4.935a5.833,5.833,0,0,1-2-1.291,2.772,2.772,0,0,0-1.714-.89,2.686,2.686,0,0,0-2.013.658,2.52,2.52,0,0,0-1.016,1.747,2.352,2.352,0,0,0,.671,1.958,10.6,10.6,0,0,0,3.948,2.336,15.845,15.845,0,0,0,5.277.9H-8.4a11.98,11.98,0,0,0,5.023-.94,7.4,7.4,0,0,0,3.15-2.59A6.508,6.508,0,0,0,.855,3.156,5.861,5.861,0,0,0,0,0Z" transform="translate(381.3 143.565)" fill="#6c42ec"/>
    <path id="Path_2376" data-name="Path 2376" d="M0,0A8.656,8.656,0,0,0-4.35-1.08,10.068,10.068,0,0,0-9.288.12a8.778,8.778,0,0,0-2.1,1.616A7.173,7.173,0,0,0-13.435,0a8.728,8.728,0,0,0-4.35-1.08A8.55,8.55,0,0,0-22.316.132a8.245,8.245,0,0,0-.765.527A2.4,2.4,0,0,0-23.6-.114a2.785,2.785,0,0,0-3.754,0,2.538,2.538,0,0,0-.757,1.9V19.87a2.646,2.646,0,0,0,.81,1.871,2.651,2.651,0,0,0,1.9.75,2.657,2.657,0,0,0,1.819-.758,2.613,2.613,0,0,0,.724-1.866V8.361a4.6,4.6,0,0,1,1.218-3.323,3.978,3.978,0,0,1,3.056-1.273,3.882,3.882,0,0,1,2.87,1.068A4.583,4.583,0,0,1-14.64,8.2V19.87a2.651,2.651,0,0,0,.809,1.872,2.648,2.648,0,0,0,1.853.75h.043a2.654,2.654,0,0,0,1.82-.759,2.606,2.606,0,0,0,.723-1.866V8.361a4.647,4.647,0,0,1,1.2-3.326,3.917,3.917,0,0,1,3.033-1.27,3.879,3.879,0,0,1,2.87,1.068A4.583,4.583,0,0,1-1.207,8.2V19.87A2.665,2.665,0,0,0,1.5,22.491a2.652,2.652,0,0,0,1.817-.758,2.607,2.607,0,0,0,.724-1.866V8.2A11.029,11.029,0,0,0,2.992,3.2,7.456,7.456,0,0,0,0,0" transform="translate(432.748 131.525)" fill="#6c42ec"/>
    <path id="Path_2377" data-name="Path 2377" d="M0,0A11.627,11.627,0,0,0-7.119-5.433a11.624,11.624,0,0,0-8.874,1.194A11.717,11.717,0,0,0-20.233,0a11.813,11.813,0,0,0-1.546,6,12.522,12.522,0,0,0,1.416,5.969,11.081,11.081,0,0,0,3.885,4.2A10.753,10.753,0,0,0-10.9,17.731,10.765,10.765,0,0,0-5.326,16.17a10.982,10.982,0,0,0,1.66-1.282v.106a2.61,2.61,0,0,0,2.528,2.684,2.606,2.606,0,0,0,2.684-2.529c0-.051,0-.1,0-.15V6.006A11.816,11.816,0,0,0,0,0ZM-3.5,6.184A7.494,7.494,0,0,1-4.367,9.6a6.53,6.53,0,0,1-2.341,2.493,6.736,6.736,0,0,1-6.755,0,6.618,6.618,0,0,1-2.385-2.5A7.348,7.348,0,0,1-16.729,6a7.434,7.434,0,0,1,.881-3.626,6.623,6.623,0,0,1,2.382-2.5,6.726,6.726,0,0,1,3.38-.908,6.706,6.706,0,0,1,3.374.906A6.517,6.517,0,0,1-4.368,2.372,7.559,7.559,0,0,1-3.505,6l0,.184Z" transform="translate(462.597 136.264)" fill="#6c42ec"/>
    <path id="Path_2378" data-name="Path 2378" d="M0,0A2.234,2.234,0,0,0,.693-1.663,13.381,13.381,0,0,0-.551-7.533a9.637,9.637,0,0,0-3.656-4.061A10.684,10.684,0,0,0-9.9-13.067a11.644,11.644,0,0,0-5.927,1.506A10.763,10.763,0,0,0-19.882-7.4a12.477,12.477,0,0,0-1.459,6.089,11.862,11.862,0,0,0,1.547,6.069,11.062,11.062,0,0,0,4.287,4.159,12.939,12.939,0,0,0,6.049,1.5A12.876,12.876,0,0,0-5.23,9.707,11.721,11.721,0,0,0-1.669,7.853,1.985,1.985,0,0,0-.8,6.123a2.463,2.463,0,0,0-.92-1.714,2.337,2.337,0,0,0-1.6-.553,2.819,2.819,0,0,0-1.618.571,7.528,7.528,0,0,1-1.978.995A7.155,7.155,0,0,1-9.3,5.854a7.578,7.578,0,0,1-3.8-.938,6.843,6.843,0,0,1-2.579-2.54,6.725,6.725,0,0,1-.7-1.717H-1.716A2.4,2.4,0,0,0,0,0M-4.788-5.363a7.51,7.51,0,0,1,.567,1.695h-12.1a7.66,7.66,0,0,1,.5-1.372,5.97,5.97,0,0,1,2.27-2.531A6.886,6.886,0,0,1-9.893-8.5a5.315,5.315,0,0,1,5.1,3.138" transform="translate(505.304 143.57)" fill="#6c42ec"/>
    <path id="Path_2379" data-name="Path 2379" d="M0,0-.125-.124a2.483,2.483,0,0,0-1.8-.715H-20.754a2.519,2.519,0,0,0-1.792.7,2.5,2.5,0,0,0-.768,1.766,2.5,2.5,0,0,0,.7,1.792,2.5,2.5,0,0,0,1.765.768h5.031v12.88l.046.595-.043,0,0,.071a11.344,11.344,0,0,0,1.235,4.76,9.76,9.76,0,0,0,3.422,3.774,8.9,8.9,0,0,0,4.883,1.383h.982c.048,0,.095,0,.143,0a3.421,3.421,0,0,0,2.136-.75A2.392,2.392,0,0,0-2.129,25a2.783,2.783,0,0,0-.665-1.923l-.019-.02a2.049,2.049,0,0,0-1.6-.721H-6.273a3.776,3.776,0,0,1-3.005-1.5,5.388,5.388,0,0,1-1.191-3.07l0-13.569h8.545A2.527,2.527,0,0,0-.135,3.423a2.531,2.531,0,0,0,.724-1.81A2.54,2.54,0,0,0-.014,0Z" transform="translate(337.57 126.423)" fill="#6c42ec"/>
    <path id="Path_2380" data-name="Path 2380" d="M0,0A6.382,6.382,0,0,0,3.415.967,6.43,6.43,0,0,0,5.931.459,1.2,1.2,0,0,0,6.437.241a4.482,4.482,0,0,0,1.895-3.4A5.972,5.972,0,0,0,6.6-7.553a1.207,1.207,0,0,0-.212-.33A11.237,11.237,0,0,1,3.423-15.5,11.277,11.277,0,0,1,14.687-26.764c6.051,0,10.443,4.676,10.443,11.118a11.614,11.614,0,0,1-3.509,7.772,1.077,1.077,0,0,0-.142.11,5.529,5.529,0,0,0-1.663,4.735A4.252,4.252,0,0,0,21.973.13a1.345,1.345,0,0,0,.215.14,6.378,6.378,0,0,0,2.858.666A6.381,6.381,0,0,0,28.46-.031a6.5,6.5,0,0,0,2.974-5.531,1.233,1.233,0,0,0-1.226-1.2h-.026a1.218,1.218,0,0,0-.859.378,1.216,1.216,0,0,0-.34.874,4,4,0,0,1-1.831,3.4,4,4,0,0,1-3.783.22,1.177,1.177,0,0,0-.112-.071,1.851,1.851,0,0,1-1.016-1.44,3.051,3.051,0,0,1,.67-2.309c.023-.02.049-.036.072-.059a14.246,14.246,0,0,0,4.6-9.883,14.019,14.019,0,0,0-3.575-9.59,12.516,12.516,0,0,0-9.321-3.979A13.731,13.731,0,0,0,.972-15.5,13.674,13.674,0,0,0,4.388-6.448a1.215,1.215,0,0,0,.291.437A3.624,3.624,0,0,1,5.886-3.317a2.03,2.03,0,0,1-.7,1.423l-.014,0a4,4,0,0,1-3.861-.184A4,4,0,0,1-.522-5.478a1.219,1.219,0,0,0-.34-.874,1.213,1.213,0,0,0-.859-.377h-.027a1.232,1.232,0,0,0-1.225,1.2A6.494,6.494,0,0,0,0,0" transform="translate(271.281 146.215)" fill="#f80"/>
    <path id="Path_2381" data-name="Path 2381" d="M0,0C3.222-.1,7.339-2.11,8.333-4.949a1.227,1.227,0,0,0-.752-1.562,1.217,1.217,0,0,0-.936.052,1.216,1.216,0,0,0-.626.7C5.451-4.136,2.489-2.528-.074-2.45A9.2,9.2,0,0,1-6.891-5.24,9.78,9.78,0,0,1-9.3-13.709a1.228,1.228,0,0,0-.94-1.456,1.227,1.227,0,0,0-1.456.94A12.321,12.321,0,0,0-8.661-3.546,11.734,11.734,0,0,0-.332,0C-.221,0-.11,0,0,0" transform="translate(273.937 153.12)" fill="#f80"/>
    <path id="Path_2382" data-name="Path 2382" d="M0,0A1.964,1.964,0,0,0,1.962,1.962,1.964,1.964,0,0,0,3.924,0,1.962,1.962,0,0,0,0,0" transform="translate(279.799 133.781)" fill="#f80"/>
    <path id="Path_2383" data-name="Path 2383" d="M0,0A1.962,1.962,0,0,0,0,3.924,1.964,1.964,0,0,0,1.962,1.962,1.964,1.964,0,0,0,0,0" transform="translate(289.354 131.84)" fill="#f80"/>
    <path id="Path_2384" data-name="Path 2384" d="M0,0A1.215,1.215,0,0,0-.533-.771,1.215,1.215,0,0,0-1.456-.94,1.225,1.225,0,0,0-2.4.516,9.776,9.776,0,0,1-4.81,8.983a9.19,9.19,0,0,1-6.816,2.791c-2.564-.078-5.525-1.686-6.093-3.308a1.222,1.222,0,0,0-.625-.7,1.219,1.219,0,0,0-.937-.053,1.229,1.229,0,0,0-.752,1.562c.993,2.839,5.111,4.852,8.333,4.949.11,0,.22.005.331.005a11.743,11.743,0,0,0,8.33-3.55A12.325,12.325,0,0,0,0,0" transform="translate(308.951 139.009)" fill="#f80"/>
    <path id="Path_2385" data-name="Path 2385" d="M0,0A1.224,1.224,0,0,0-.923-.169c-4.926,1.056-9.149.416-11.892-1.8a7.03,7.03,0,0,1-2.7-4.7c.007-.126.013-.251.013-.376a1.227,1.227,0,0,0-1.226-1.226,1.219,1.219,0,0,0-.878.374,1.22,1.22,0,0,0-.374.878c0,.112,0,.224.011.336A7.038,7.038,0,0,1-20.673-2C-23.416.22-27.64.859-32.565-.2a1.223,1.223,0,0,0-.923.17,1.217,1.217,0,0,0-.533.772,1.222,1.222,0,0,0,.169.922,1.22,1.22,0,0,0,.773.533,23.635,23.635,0,0,0,4.924.549A14.144,14.144,0,0,0-19.132-.091a10.4,10.4,0,0,0,2.38-2.715,10.417,10.417,0,0,0,2.4,2.742A14.144,14.144,0,0,0-5.333,2.777,23.575,23.575,0,0,0-.409,2.228,1.219,1.219,0,0,0,.363,1.7,1.215,1.215,0,0,0,.532.772,1.214,1.214,0,0,0,0,0" transform="translate(302.335 156.333)" fill="#f80"/>
  </g>
</svg>
