<svg xmlns="http://www.w3.org/2000/svg" viewBox="0 0 50.16258 44.79994"><defs><style>.a{fill:#ff8900;}</style></defs><path class="a" d="M1008.59287,1032.96266a6.915,6.915,0,0,0,6.308.488,1.29225,1.29225,0,0,0,.539-.232,4.77107,4.77107,0,0,0,2.015-3.618,6.35009,6.35009,0,0,0-1.841-4.672,1.29039,1.29039,0,0,0-.225-.352,11.981,11.981,0,0,1,8.826-20.083c6.437,0,11.109,4.973,11.109,11.825a12.35309,12.35309,0,0,1-3.733,8.267,1.28934,1.28934,0,0,0-.151.118,5.881,5.881,0,0,0-1.768,5.036,4.523,4.523,0,0,0,2.294,3.36,1.31035,1.31035,0,0,0,.229.148,6.78237,6.78237,0,0,0,9.834-6.203,1.311,1.311,0,0,0-1.3-1.275h-.029a1.3,1.3,0,0,0-1.27515,1.32437l.00015.00763a4.173,4.173,0,0,1-5.972,3.856,1.27968,1.27968,0,0,0-.119-.075,1.97,1.97,0,0,1-1.081-1.532,3.248,3.248,0,0,1,.713-2.456c.025-.021.053-.039.077-.062a15.155,15.155,0,0,0,4.892-10.514,14.91388,14.91388,0,0,0-3.8-10.2,13.315,13.315,0,0,0-9.915-4.232,14.584,14.584,0,0,0-10.95908,24.22,1.29392,1.29392,0,0,0,.309.465,3.849,3.849,0,0,1,1.284,2.865,2.159,2.159,0,0,1-.748,1.514l-.014.005a4.175,4.175,0,0,1-6.054-3.818,1.3,1.3,0,0,0-1.26737-1.33185l-.00763-.00015h-.028a1.31,1.31,0,0,0-1.3,1.276A6.908,6.908,0,0,0,1008.59287,1032.96266Z" transform="translate(-998.73672 -1001.88545)"/><path class="a" d="M1011.41886,1040.30769c3.427-.1,7.806-2.244,8.863-5.264a1.30363,1.30363,0,1,0-2.461-.861c-.6,1.726-3.754,3.437-6.481,3.519a9.786,9.786,0,0,1-7.251-2.968,10.4,10.4,0,0,1-2.567-9.008,1.30373,1.30373,0,1,0-2.549-.549,13.11,13.11,0,0,0,3.232,11.359,12.48705,12.48705,0,0,0,8.861,3.776C1011.18386,1040.3127,1011.30187,1040.31068,1011.41886,1040.30769Z" transform="translate(-998.73672 -1001.88545)"/><path class="a" d="M1017.65485,1019.73668a2.087,2.087,0,1,0,2.087-2.087A2.087,2.087,0,0,0,1017.65485,1019.73668Z" transform="translate(-998.73672 -1001.88545)"/><path class="a" d="M1027.81788,1017.67167a2.087,2.087,0,1,0,2.087,2.087A2.087,2.087,0,0,0,1027.81788,1017.67167Z" transform="translate(-998.73672 -1001.88545)"/><path class="a" d="M1048.66285,1025.29667a1.30373,1.30373,0,1,0-2.549.549,10.39994,10.39994,0,0,1-2.567,9.008,9.78392,9.78392,0,0,1-7.251,2.968c-2.727-.083-5.877-1.793-6.481-3.519a1.30363,1.30363,0,1,0-2.461.861c1.057,3.02,5.437,5.16,8.864,5.264.117,0,.235.005.352.005a12.486,12.486,0,0,0,8.861-3.776A13.108,13.108,0,0,0,1048.66285,1025.29667Z" transform="translate(-998.73672 -1001.88545)"/><path class="a" d="M1041.62485,1043.72566a1.30007,1.30007,0,0,0-.982-.18c-5.239,1.123-9.732.443-12.65-1.916a7.478,7.478,0,0,1-2.875-5c.007-.134.013-.267.013-.4a1.31807,1.31807,0,1,0-2.636.029h0c0,.119.006.238.012.357a7.48293,7.48293,0,0,1-2.873,4.982c-2.917,2.358-7.41,3.038-12.65,1.916a1.30342,1.30342,0,0,0-.546,2.549,25.08885,25.08885,0,0,0,5.237.585,15.05008,15.05008,0,0,0,9.6-3.022,11.08022,11.08022,0,0,0,2.531-2.888,11.07776,11.07776,0,0,0,2.549,2.916,15.04912,15.04912,0,0,0,9.6,3.022,25.11153,25.11153,0,0,0,5.237-.584,1.3,1.3,0,0,0,.435-2.369Z" transform="translate(-998.73672 -1001.88545)"/></svg>