<svg xmlns="http://www.w3.org/2000/svg" viewBox="0 0 371.99392 372.02639"><defs><style>.a{fill:#fff;}</style></defs><path class="a" d="M391.2611,613.71112a30.34339,30.34339,0,0,0-14.6584,3.711A171.58364,171.58364,0,0,1,546.00922,343.89768a7.27353,7.27353,0,0,0,2.88222-14.21308,187.43014,187.43014,0,0,0-37.03566-3.711c-102.74932.02871-186.02084,83.34676-185.99214,186.09608a186.04413,186.04413,0,0,0,40.02667,115.236,30.529,30.529,0,1,0,25.40789-13.60695Zm11.25665,41.82282a15.982,15.982,0,1,1,4.68822-11.30613A15.982,15.982,0,0,1,402.51775,655.53394Z" transform="translate(-325.86363 -325.97361)"/><path class="a" d="M657.85829,396.69267a30.45476,30.45476,0,1,0-10.73707,9.896,171.58363,171.58363,0,0,1-169.085,273.54915,7.27351,7.27351,0,1,0-3.4649,14.12835q.301.07383.6074.12184A187.55222,187.55222,0,0,0,511.85561,698c102.74937-.02331,186.02516-83.33694,186.00194-186.08626a186.04364,186.04364,0,0,0-40.03644-115.2582Zm-36.70159-5.61594a15.99441,15.99441,0,1,1,11.30616,4.67582A15.99429,15.99429,0,0,1,621.1567,391.07673Z" transform="translate(-325.86363 -325.97361)"/><path class="a" d="M481.871,637.02853a7.27351,7.27351,0,0,0,7.26113,7.26113h45.4348a7.26119,7.26119,0,0,0,7.26124-7.26113h0V622.902A113.80384,113.80384,0,0,0,569.042,611.59581l9.896,9.896a7.26112,7.26112,0,0,0,10.26878.01066l.01067-.01066L621.37933,589.33a7.27358,7.27358,0,0,0,0-10.27945l-9.896-9.896a113.80445,113.80445,0,0,0,11.30616-27.21386h14.03992a7.26117,7.26117,0,0,0,7.26114-7.26114v-45.472a7.26117,7.26117,0,0,0-7.26114-7.26113H622.82667a113.80394,113.80394,0,0,0-11.30616-27.21387l9.896-9.896a7.27355,7.27355,0,0,0,0-10.27944L589.25465,402.3952a7.26112,7.26112,0,0,0-10.26878-.01066l-.01067.01066-9.896,9.896a113.80367,113.80367,0,0,0-27.21386-11.30615V386.99458a7.26116,7.26116,0,0,0-7.26114-7.26114H489.13212a7.27351,7.27351,0,0,0-7.26113,7.26114v13.96565a113.71614,113.71614,0,0,0-27.21387,11.30615l-9.896-9.896a7.27358,7.27358,0,0,0-10.27945,0l-32.16186,32.16186a7.26113,7.26113,0,0,0-.01066,10.26879l.01066.01066,9.896,9.896a113.80391,113.80391,0,0,0-11.30615,27.21387H386.8821a7.26116,7.26116,0,0,0-7.26114,7.26113v45.4348a7.26116,7.26116,0,0,0,7.24877,7.2735H400.922a113.80394,113.80394,0,0,0,11.30616,27.21387l-9.896,9.896a7.26113,7.26113,0,0,0-.01067,10.26878l.01067.01067L434.494,621.44217a7.27325,7.27325,0,0,0,5.13354,2.12759h0a7.26112,7.26112,0,0,0,5.13354-2.12759l9.896-9.896A113.90327,113.90327,0,0,0,481.871,622.85232Zm-24.43065-40.67244a7.27358,7.27358,0,0,0-9.07956.96489l-8.84447,8.84448L417.671,584.30777l8.84447-8.84447a7.26111,7.26111,0,0,0,.96489-9.07957,99.46725,99.46725,0,0,1-13.76784-33.26284,7.27346,7.27346,0,0,0-7.10032-5.73962H394.11851V496.45638h12.469a7.2611,7.2611,0,0,0,7.10032-5.73962,99.47908,99.47908,0,0,1,13.76775-33.21329,7.26109,7.26109,0,0,0-.96489-9.07956l-8.78266-8.78266,21.85769-21.84533,8.77029,8.78266a7.27357,7.27357,0,0,0,9.07956.96489,99.43066,99.43066,0,0,1,33.2133-13.76774,7.27347,7.27347,0,0,0,5.73962-7.10033v-12.37h30.92489v12.37a7.26112,7.26112,0,0,0,5.73962,7.10033,99.51769,99.51769,0,0,1,33.2133,13.76774,7.2611,7.2611,0,0,0,9.07956-.96489l8.78265-8.77029,21.85769,21.84532-8.78266,8.78266a7.2611,7.2611,0,0,0-.96489,9.07956,99.54036,99.54036,0,0,1,13.76775,33.2133,7.26111,7.26111,0,0,0,7.10032,5.73962h12.56814v30.92488H617.16113a7.27346,7.27346,0,0,0-7.10032,5.73962A99.45425,99.45425,0,0,1,596.256,566.33419a7.27358,7.27358,0,0,0,.9649,9.07956l8.84447,8.84447-21.87,21.84542-8.84447-8.84447a7.2611,7.2611,0,0,0-9.07957-.96489A99.52706,99.52706,0,0,1,533.058,610.062a7.26112,7.26112,0,0,0-5.73962,7.10032v12.54314H496.39345v-12.469a7.27345,7.27345,0,0,0-5.73962-7.10032,99.4788,99.4788,0,0,1-33.2133-13.76775Z" transform="translate(-325.86363 -325.97361)"/><path class="a" d="M571.91188,511.993a60.04381,60.04381,0,1,0-60.04381,60.0438A60.04391,60.04391,0,0,0,571.91188,511.993Zm-105.56515,0a45.50907,45.50907,0,1,1,45.50907,45.50907A45.509,45.509,0,0,1,466.34673,511.993Z" transform="translate(-325.86363 -325.97361)"/><path class="a" d="M578.7773,353.44728a7.27382,7.27382,0,1,0-5.13364-2.12764A7.27371,7.27371,0,0,0,578.7773,353.44728Z" transform="translate(-325.86363 -325.97361)"/><path class="a" d="M445.25593,670.68727a7.27343,7.27343,0,1,0,5.13345,2.1276A7.27357,7.27357,0,0,0,445.25593,670.68727Z" transform="translate(-325.86363 -325.97361)"/></svg>