<svg xmlns="http://www.w3.org/2000/svg" viewBox="0 0 30.72874 30.78828"><defs><style>.a{fill:#fff;}</style></defs><path class="a" d="M1032.75075,1028.01416a3.028,3.028,0,0,0-2.2-1.007,3.131,3.131,0,0,0-2.222,1l-2.053,2.047c-.169-.091-.338-.175-.5-.26-.234-.117-.455-.227-.643-.344a22.31841,22.31841,0,0,1-5.348-4.874,13.16758,13.16758,0,0,1-1.754-2.768c.533-.487,1.027-.994,1.508-1.482.182-.182.364-.37.546-.552a2.981,2.981,0,0,0,0-4.5l-1.774-1.774c-.2-.2-.409-.409-.6-.617-.39-.4-.8-.819-1.222-1.209a3.076,3.076,0,0,0-2.177-.955,3.183,3.183,0,0,0-2.216.956l-.013.013-2.206,2.226a4.754,4.754,0,0,0-1.41,3.022,11.391,11.391,0,0,0,.829,4.824,27.97888,27.97888,0,0,0,4.971,8.292,30.57885,30.57885,0,0,0,10.183,7.973,15.86494,15.86494,0,0,0,5.718,1.69c.136.006.279.013.409.013a4.9,4.9,0,0,0,3.753-1.614c.006-.013.019-.019.026-.032a14.77408,14.77408,0,0,1,1.14-1.174c.279-.266.565-.546.845-.838a3.242,3.242,0,0,0,.981-2.248,3.123,3.123,0,0,0-1-2.229Zm2.326,6.843c-.007,0-.007.006,0,0-.253.273-.513.52-.793.793a17.08629,17.08629,0,0,0-1.254,1.3,3.133,3.133,0,0,1-2.443,1.033c-.1,0-.2,0-.3-.007a14.09383,14.09383,0,0,1-5.069-1.521,28.865,28.865,0,0,1-9.591-7.512,26.38113,26.38113,0,0,1-4.679-7.791,9.27818,9.27818,0,0,1-.728-4.068,2.98305,2.98305,0,0,1,.9-1.93l2.216-2.216a1.477,1.477,0,0,1,.988-.461,1.39,1.39,0,0,1,.949.455l.019.019c.4.37.773.754,1.17,1.163.2.208.409.416.617.63l1.772,1.77a1.24,1.24,0,0,1,0,2.014c-.188.188-.37.377-.559.559-.546.559-1.066,1.079-1.631,1.586-.013.013-.026.019-.032.032a1.325,1.325,0,0,0-.338,1.475l.019.058a14.24191,14.24191,0,0,0,2.1,3.425l.006.007a23.85081,23.85081,0,0,0,5.77,5.251,8.87458,8.87458,0,0,0,.8.435c.234.117.455.227.643.344.026.013.052.032.078.045a1.40906,1.40906,0,0,0,.643.162,1.38894,1.38894,0,0,0,.988-.448l2.222-2.222a1.47,1.47,0,0,1,.981-.487,1.323,1.323,0,0,1,.936.474l.013.013,3.58,3.58a1.285,1.285,0,0,1,.007,2.037Z" transform="translate(-1008.45452 -1008.94127)"/><path class="a" d="M1025.05676,1016.26215a8.363,8.363,0,0,1,6.81,6.81.872.872,0,0,0,.864.728,1.15813,1.15813,0,0,0,.149-.013.878.878,0,0,0,.72159-1.01049l-.00059-.00351a10.112,10.112,0,0,0-8.24-8.24.882.882,0,0,0-1.014.715.868.868,0,0,0,.69556,1.01146Z" transform="translate(-1008.45452 -1008.94127)"/><path class="a" d="M1039.16975,1022.52116a16.651,16.651,0,0,0-13.568-13.568.87625.87625,0,0,0-.286,1.729,14.873,14.873,0,0,1,12.126,12.126.872.872,0,0,0,.864.728,1.16125,1.16125,0,0,0,.149-.013.861.861,0,0,0,.71811-.98334Z" transform="translate(-1008.45452 -1008.94127)"/></svg>